<mxfile host="app.diagrams.net" agent="Mozilla/5.0 (Macintosh; Intel Mac OS X 10_15_7) AppleWebKit/537.36 (KHTML, like Gecko) Chrome/133.0.0.0 Safari/537.36" version="26.0.16">
  <diagram name="第 1 页" id="Y3xxqeVv_an5z2IBLHUR">
    <mxGraphModel dx="1306" dy="750" grid="1" gridSize="10" guides="1" tooltips="1" connect="1" arrows="1" fold="1" page="1" pageScale="1" pageWidth="827" pageHeight="1169" math="0" shadow="0">
      <root>
        <mxCell id="0" />
        <mxCell id="1" parent="0" />
        <mxCell id="dCQLdkxHx-S674_bG_W2-8" value="" style="rounded=1;whiteSpace=wrap;html=1;fillColor=#f8cecc;strokeColor=#b85450;" vertex="1" parent="1">
          <mxGeometry x="130" y="290" width="250" height="220" as="geometry" />
        </mxCell>
        <mxCell id="dCQLdkxHx-S674_bG_W2-23" value="" style="edgeStyle=orthogonalEdgeStyle;rounded=0;orthogonalLoop=1;jettySize=auto;html=1;dashed=1;endArrow=none;startFill=0;exitX=1;exitY=0.5;exitDx=0;exitDy=0;" edge="1" parent="1" source="dCQLdkxHx-S674_bG_W2-8">
          <mxGeometry relative="1" as="geometry">
            <mxPoint x="430" y="400" as="targetPoint" />
          </mxGeometry>
        </mxCell>
        <mxCell id="dCQLdkxHx-S674_bG_W2-28" value="" style="edgeStyle=orthogonalEdgeStyle;rounded=0;orthogonalLoop=1;jettySize=auto;html=1;endArrow=none;startFill=0;" edge="1" parent="1" source="dCQLdkxHx-S674_bG_W2-2">
          <mxGeometry relative="1" as="geometry">
            <mxPoint x="310" y="420" as="targetPoint" />
          </mxGeometry>
        </mxCell>
        <mxCell id="dCQLdkxHx-S674_bG_W2-31" value="" style="edgeStyle=orthogonalEdgeStyle;rounded=0;orthogonalLoop=1;jettySize=auto;html=1;endArrow=none;startFill=0;" edge="1" parent="1" source="dCQLdkxHx-S674_bG_W2-2">
          <mxGeometry relative="1" as="geometry">
            <mxPoint x="190" y="425" as="targetPoint" />
          </mxGeometry>
        </mxCell>
        <mxCell id="dCQLdkxHx-S674_bG_W2-2" value="master &lt;br&gt;agent" style="rounded=1;whiteSpace=wrap;html=1;" vertex="1" parent="1">
          <mxGeometry x="210" y="330" width="80" height="70" as="geometry" />
        </mxCell>
        <mxCell id="dCQLdkxHx-S674_bG_W2-32" value="" style="edgeStyle=orthogonalEdgeStyle;rounded=0;orthogonalLoop=1;jettySize=auto;html=1;dashed=1;" edge="1" parent="1" source="dCQLdkxHx-S674_bG_W2-3" target="dCQLdkxHx-S674_bG_W2-13">
          <mxGeometry relative="1" as="geometry" />
        </mxCell>
        <mxCell id="dCQLdkxHx-S674_bG_W2-3" value="slave&lt;div&gt;agent&lt;/div&gt;" style="rounded=1;whiteSpace=wrap;html=1;" vertex="1" parent="1">
          <mxGeometry x="150" y="420" width="80" height="70" as="geometry" />
        </mxCell>
        <mxCell id="dCQLdkxHx-S674_bG_W2-4" value="&lt;div&gt;slave&lt;/div&gt;agent" style="rounded=1;whiteSpace=wrap;html=1;" vertex="1" parent="1">
          <mxGeometry x="270" y="420" width="80" height="70" as="geometry" />
        </mxCell>
        <mxCell id="dCQLdkxHx-S674_bG_W2-9" value="&lt;font style=&quot;font-size: 14px;&quot;&gt;group1&lt;/font&gt;" style="text;html=1;align=center;verticalAlign=middle;whiteSpace=wrap;rounded=0;" vertex="1" parent="1">
          <mxGeometry x="220" y="290" width="60" height="30" as="geometry" />
        </mxCell>
        <mxCell id="dCQLdkxHx-S674_bG_W2-12" value="" style="rounded=1;whiteSpace=wrap;html=1;" vertex="1" parent="1">
          <mxGeometry x="130" y="540" width="640" height="60" as="geometry" />
        </mxCell>
        <mxCell id="dCQLdkxHx-S674_bG_W2-13" value="....." style="text;html=1;align=center;verticalAlign=middle;whiteSpace=wrap;rounded=0;" vertex="1" parent="1">
          <mxGeometry x="334" y="440" width="60" height="30" as="geometry" />
        </mxCell>
        <mxCell id="dCQLdkxHx-S674_bG_W2-16" value="&lt;font style=&quot;font-size: 15px;&quot;&gt;......&lt;/font&gt;" style="text;html=1;align=center;verticalAlign=middle;whiteSpace=wrap;rounded=0;" vertex="1" parent="1">
          <mxGeometry x="680" y="385" width="60" height="30" as="geometry" />
        </mxCell>
        <mxCell id="dCQLdkxHx-S674_bG_W2-17" value="GUI" style="rounded=1;whiteSpace=wrap;html=1;" vertex="1" parent="1">
          <mxGeometry x="130" y="200" width="640" height="60" as="geometry" />
        </mxCell>
        <mxCell id="dCQLdkxHx-S674_bG_W2-18" value="&lt;div&gt;PgSQL&lt;/div&gt;" style="rounded=1;whiteSpace=wrap;html=1;fillColor=#f8cecc;strokeColor=#b85450;" vertex="1" parent="1">
          <mxGeometry x="160" y="550" width="80" height="40" as="geometry" />
        </mxCell>
        <mxCell id="dCQLdkxHx-S674_bG_W2-19" value="&lt;div&gt;Log&lt;/div&gt;" style="rounded=1;whiteSpace=wrap;html=1;" vertex="1" parent="1">
          <mxGeometry x="280" y="550" width="80" height="40" as="geometry" />
        </mxCell>
        <mxCell id="dCQLdkxHx-S674_bG_W2-20" value="&lt;div&gt;Simulator&lt;/div&gt;" style="rounded=1;whiteSpace=wrap;html=1;" vertex="1" parent="1">
          <mxGeometry x="400" y="550" width="80" height="40" as="geometry" />
        </mxCell>
        <mxCell id="dCQLdkxHx-S674_bG_W2-21" value="&lt;font style=&quot;font-size: 15px;&quot;&gt;......&lt;/font&gt;" style="text;html=1;align=center;verticalAlign=middle;whiteSpace=wrap;rounded=0;" vertex="1" parent="1">
          <mxGeometry x="520" y="550" width="60" height="30" as="geometry" />
        </mxCell>
        <mxCell id="dCQLdkxHx-S674_bG_W2-33" value="" style="rounded=1;whiteSpace=wrap;html=1;fillColor=#f8cecc;strokeColor=#b85450;" vertex="1" parent="1">
          <mxGeometry x="430" y="290" width="250" height="220" as="geometry" />
        </mxCell>
        <mxCell id="dCQLdkxHx-S674_bG_W2-34" value="" style="edgeStyle=orthogonalEdgeStyle;rounded=0;orthogonalLoop=1;jettySize=auto;html=1;endArrow=none;startFill=0;" edge="1" parent="1" source="dCQLdkxHx-S674_bG_W2-36">
          <mxGeometry relative="1" as="geometry">
            <mxPoint x="610" y="420" as="targetPoint" />
          </mxGeometry>
        </mxCell>
        <mxCell id="dCQLdkxHx-S674_bG_W2-35" value="" style="edgeStyle=orthogonalEdgeStyle;rounded=0;orthogonalLoop=1;jettySize=auto;html=1;endArrow=none;startFill=0;" edge="1" parent="1" source="dCQLdkxHx-S674_bG_W2-36">
          <mxGeometry relative="1" as="geometry">
            <mxPoint x="490" y="425" as="targetPoint" />
          </mxGeometry>
        </mxCell>
        <mxCell id="dCQLdkxHx-S674_bG_W2-36" value="master &lt;br&gt;agent" style="rounded=1;whiteSpace=wrap;html=1;" vertex="1" parent="1">
          <mxGeometry x="510" y="330" width="80" height="70" as="geometry" />
        </mxCell>
        <mxCell id="dCQLdkxHx-S674_bG_W2-37" value="" style="edgeStyle=orthogonalEdgeStyle;rounded=0;orthogonalLoop=1;jettySize=auto;html=1;dashed=1;" edge="1" parent="1" source="dCQLdkxHx-S674_bG_W2-38">
          <mxGeometry relative="1" as="geometry">
            <mxPoint x="634" y="455" as="targetPoint" />
          </mxGeometry>
        </mxCell>
        <mxCell id="dCQLdkxHx-S674_bG_W2-38" value="slave&lt;div&gt;agent&lt;/div&gt;" style="rounded=1;whiteSpace=wrap;html=1;" vertex="1" parent="1">
          <mxGeometry x="450" y="420" width="80" height="70" as="geometry" />
        </mxCell>
        <mxCell id="dCQLdkxHx-S674_bG_W2-39" value="&lt;div&gt;slave&lt;/div&gt;agent" style="rounded=1;whiteSpace=wrap;html=1;" vertex="1" parent="1">
          <mxGeometry x="570" y="420" width="80" height="70" as="geometry" />
        </mxCell>
        <mxCell id="dCQLdkxHx-S674_bG_W2-40" value="&lt;font style=&quot;font-size: 14px;&quot;&gt;group2&lt;/font&gt;" style="text;html=1;align=center;verticalAlign=middle;whiteSpace=wrap;rounded=0;" vertex="1" parent="1">
          <mxGeometry x="520" y="290" width="60" height="30" as="geometry" />
        </mxCell>
        <mxCell id="dCQLdkxHx-S674_bG_W2-41" value="Pub/Sub" style="text;html=1;align=center;verticalAlign=middle;whiteSpace=wrap;rounded=0;" vertex="1" parent="1">
          <mxGeometry x="310" y="370" width="60" height="30" as="geometry" />
        </mxCell>
      </root>
    </mxGraphModel>
  </diagram>
</mxfile>
